<mxfile host="app.diagrams.net" modified="2024-05-22T08:10:38.408Z" agent="Mozilla/5.0 (Macintosh; Intel Mac OS X 10_15_7) AppleWebKit/537.36 (KHTML, like Gecko) Chrome/124.0.0.0 Safari/537.36" etag="-T_F42QwAYt1HT_5_3hx" version="24.0.7" type="device">
  <diagram name="Page-1" id="Ih5CQXIx-MPEnnZuY2w2">
    <mxGraphModel dx="1390" dy="885" grid="1" gridSize="10" guides="1" tooltips="1" connect="1" arrows="1" fold="1" page="1" pageScale="1" pageWidth="850" pageHeight="1100" math="0" shadow="0">
      <root>
        <mxCell id="0" />
        <mxCell id="1" parent="0" />
        <mxCell id="yIxIawge5LK_cy5xJMyU-1" value="" style="rounded=0;whiteSpace=wrap;html=1;fillColor=#efefef;strokeWidth=2;dashed=1;strokeColor=#999999;" vertex="1" parent="1">
          <mxGeometry x="82" y="320" width="1338" height="680" as="geometry" />
        </mxCell>
        <mxCell id="SAaWtaPaoyS6eWU_aDOA-2" value="" style="html=1;overflow=block;blockSpacing=1;whiteSpace=wrap;fontSize=13;spacing=3.8;strokeOpacity=0;fillOpacity=100;rounded=1;absoluteArcSize=1;arcSize=9;fillColor=#dfe3e8;strokeWidth=NaN;lucidId=mNcEYTTzJvdY;" parent="1" vertex="1">
          <mxGeometry x="801" y="650" width="571" height="120" as="geometry" />
        </mxCell>
        <mxCell id="SAaWtaPaoyS6eWU_aDOA-3" value="" style="html=1;overflow=block;blockSpacing=1;whiteSpace=wrap;fontSize=13;spacing=3.8;strokeOpacity=0;fillOpacity=100;rounded=1;absoluteArcSize=1;arcSize=9;fillColor=#dfe3e8;strokeWidth=NaN;lucidId=SMcEaSbGTUnG;" parent="1" vertex="1">
          <mxGeometry x="128" y="650" width="571" height="120" as="geometry" />
        </mxCell>
        <mxCell id="SAaWtaPaoyS6eWU_aDOA-4" value="Spine1" style="html=1;overflow=block;blockSpacing=1;whiteSpace=wrap;fontSize=16.7;fontColor=#ffffff;fontStyle=1;spacing=9;strokeColor=#708ca6;strokeOpacity=100;fillOpacity=100;rounded=1;absoluteArcSize=1;arcSize=9;fillColor=#708ca6;strokeWidth=NaN;lucidId=DrcEM_hbpb6P;" parent="1" vertex="1">
          <mxGeometry x="471" y="356" width="198" height="69" as="geometry" />
        </mxCell>
        <mxCell id="SAaWtaPaoyS6eWU_aDOA-5" value="Spine2" style="html=1;overflow=block;blockSpacing=1;whiteSpace=wrap;fontSize=16.7;fontColor=#ffffff;fontStyle=1;spacing=9;strokeColor=#708ca6;strokeOpacity=100;fillOpacity=100;rounded=1;absoluteArcSize=1;arcSize=9;fillColor=#708ca6;strokeWidth=NaN;lucidId=JrcE.HmHF6oe;" parent="1" vertex="1">
          <mxGeometry x="837" y="356" width="198" height="69" as="geometry" />
        </mxCell>
        <mxCell id="SAaWtaPaoyS6eWU_aDOA-6" value="Leaf1" style="html=1;overflow=block;blockSpacing=1;whiteSpace=wrap;fontSize=16.7;fontColor=#ffffff;fontStyle=1;spacing=9;strokeColor=#708ca6;strokeOpacity=100;fillOpacity=100;rounded=1;absoluteArcSize=1;arcSize=9;fillColor=#708ca6;strokeWidth=NaN;lucidId=1tcEnaTPczxD;" parent="1" vertex="1">
          <mxGeometry x="175" y="676" width="198" height="69" as="geometry" />
        </mxCell>
        <mxCell id="SAaWtaPaoyS6eWU_aDOA-7" value="Leaf2" style="html=1;overflow=block;blockSpacing=1;whiteSpace=wrap;fontSize=16.7;fontColor=#ffffff;fontStyle=1;spacing=9;strokeColor=#708ca6;strokeOpacity=100;fillOpacity=100;rounded=1;absoluteArcSize=1;arcSize=9;fillColor=#708ca6;strokeWidth=NaN;lucidId=3tcEv-ZOdnDd;" parent="1" vertex="1">
          <mxGeometry x="471" y="676" width="198" height="69" as="geometry" />
        </mxCell>
        <mxCell id="SAaWtaPaoyS6eWU_aDOA-8" value="Leaf3" style="html=1;overflow=block;blockSpacing=1;whiteSpace=wrap;fontSize=16.7;fontColor=#ffffff;fontStyle=1;spacing=9;strokeColor=#708ca6;strokeOpacity=100;fillOpacity=100;rounded=1;absoluteArcSize=1;arcSize=9;fillColor=#708ca6;strokeWidth=NaN;lucidId=jMcEnVc1r_W5;" parent="1" vertex="1">
          <mxGeometry x="837" y="676" width="198" height="69" as="geometry" />
        </mxCell>
        <mxCell id="SAaWtaPaoyS6eWU_aDOA-9" value="Leaf4" style="html=1;overflow=block;blockSpacing=1;whiteSpace=wrap;fontSize=16.7;fontColor=#ffffff;fontStyle=1;spacing=9;strokeColor=#708ca6;strokeOpacity=100;fillOpacity=100;rounded=1;absoluteArcSize=1;arcSize=9;fillColor=#708ca6;strokeWidth=NaN;lucidId=jMcEj8rc27tS;" parent="1" vertex="1">
          <mxGeometry x="1133" y="676" width="198" height="69" as="geometry" />
        </mxCell>
        <mxCell id="SAaWtaPaoyS6eWU_aDOA-10" value="" style="html=1;jettySize=18;whiteSpace=wrap;fontSize=13;strokeColor=#708ca6;strokeOpacity=100;strokeWidth=3;rounded=0;startArrow=none;endArrow=none;exitX=0.5;exitY=-0.005;exitPerimeter=0;entryX=0.5;entryY=1.005;entryPerimeter=0;lucidId=LNcEuh82IJ5i;" parent="1" source="SAaWtaPaoyS6eWU_aDOA-6" target="SAaWtaPaoyS6eWU_aDOA-4" edge="1">
          <mxGeometry width="100" height="100" relative="1" as="geometry">
            <Array as="points" />
          </mxGeometry>
        </mxCell>
        <mxCell id="SAaWtaPaoyS6eWU_aDOA-11" value="eth2" style="text;html=1;resizable=0;labelBackgroundColor=default;align=center;verticalAlign=middle;fontStyle=0;fontColor=#333333;fontSize=12;" parent="SAaWtaPaoyS6eWU_aDOA-10" vertex="1">
          <mxGeometry x="-0.6255094270038256" relative="1" as="geometry" />
        </mxCell>
        <mxCell id="SAaWtaPaoyS6eWU_aDOA-12" value="eth2" style="text;html=1;resizable=0;labelBackgroundColor=default;align=center;verticalAlign=middle;fontStyle=0;fontColor=#333333;fontSize=12;" parent="SAaWtaPaoyS6eWU_aDOA-10" vertex="1">
          <mxGeometry x="0.7380806002399574" relative="1" as="geometry" />
        </mxCell>
        <mxCell id="SAaWtaPaoyS6eWU_aDOA-13" value="" style="html=1;jettySize=18;whiteSpace=wrap;fontSize=13;strokeColor=#708ca6;strokeOpacity=100;strokeWidth=3;rounded=0;startArrow=none;endArrow=none;exitX=0.5;exitY=-0.005;exitPerimeter=0;entryX=0.5;entryY=1.005;entryPerimeter=0;lucidId=dOcELgGunR_l;" parent="1" source="SAaWtaPaoyS6eWU_aDOA-7" target="SAaWtaPaoyS6eWU_aDOA-4" edge="1">
          <mxGeometry width="100" height="100" relative="1" as="geometry">
            <Array as="points" />
          </mxGeometry>
        </mxCell>
        <mxCell id="SAaWtaPaoyS6eWU_aDOA-14" value="eth3" style="text;html=1;resizable=0;labelBackgroundColor=default;align=center;verticalAlign=middle;fontStyle=0;fontColor=#333333;fontSize=12;" parent="SAaWtaPaoyS6eWU_aDOA-13" vertex="1">
          <mxGeometry x="0.7278514268414265" relative="1" as="geometry" />
        </mxCell>
        <mxCell id="SAaWtaPaoyS6eWU_aDOA-15" value="eth2" style="text;html=1;resizable=0;labelBackgroundColor=default;align=center;verticalAlign=middle;fontStyle=0;fontColor=#333333;fontSize=12;" parent="SAaWtaPaoyS6eWU_aDOA-13" vertex="1">
          <mxGeometry x="-0.6672981247674407" relative="1" as="geometry">
            <mxPoint y="-4" as="offset" />
          </mxGeometry>
        </mxCell>
        <mxCell id="SAaWtaPaoyS6eWU_aDOA-16" value="" style="html=1;jettySize=18;whiteSpace=wrap;fontSize=13;strokeColor=#708ca6;strokeOpacity=100;strokeWidth=3;rounded=0;startArrow=none;endArrow=none;exitX=0.384;exitY=-0.005;exitPerimeter=0;entryX=0.5;entryY=1.005;entryPerimeter=0;lucidId=kOcEzasSurEM;" parent="1" source="SAaWtaPaoyS6eWU_aDOA-8" target="SAaWtaPaoyS6eWU_aDOA-4" edge="1">
          <mxGeometry width="100" height="100" relative="1" as="geometry">
            <Array as="points" />
          </mxGeometry>
        </mxCell>
        <mxCell id="SAaWtaPaoyS6eWU_aDOA-17" value="eth4" style="text;html=1;resizable=0;labelBackgroundColor=default;align=center;verticalAlign=middle;fontStyle=0;fontColor=#333333;fontSize=12;" parent="SAaWtaPaoyS6eWU_aDOA-16" vertex="1">
          <mxGeometry x="0.7504438308774231" relative="1" as="geometry" />
        </mxCell>
        <mxCell id="SAaWtaPaoyS6eWU_aDOA-58" value="eth2" style="edgeLabel;html=1;align=center;verticalAlign=middle;resizable=0;points=[];fontStyle=0;fontSize=12;" parent="SAaWtaPaoyS6eWU_aDOA-16" vertex="1" connectable="0">
          <mxGeometry x="-0.7134" y="1" relative="1" as="geometry">
            <mxPoint x="-13" y="-11" as="offset" />
          </mxGeometry>
        </mxCell>
        <mxCell id="SAaWtaPaoyS6eWU_aDOA-18" value="" style="html=1;jettySize=18;whiteSpace=wrap;fontSize=13;strokeColor=#708ca6;strokeOpacity=100;strokeWidth=3;rounded=0;startArrow=none;endArrow=none;exitX=0.343;exitY=-0.005;exitPerimeter=0;entryX=0.5;entryY=1.005;entryPerimeter=0;lucidId=qOcEoxyUAGsm;" parent="1" source="SAaWtaPaoyS6eWU_aDOA-9" target="SAaWtaPaoyS6eWU_aDOA-4" edge="1">
          <mxGeometry width="100" height="100" relative="1" as="geometry">
            <Array as="points" />
          </mxGeometry>
        </mxCell>
        <mxCell id="SAaWtaPaoyS6eWU_aDOA-19" value="eth5" style="text;html=1;resizable=0;labelBackgroundColor=default;align=center;verticalAlign=middle;fontStyle=0;fontColor=#333333;fontSize=12;" parent="SAaWtaPaoyS6eWU_aDOA-18" vertex="1">
          <mxGeometry x="0.7517832898454835" relative="1" as="geometry" />
        </mxCell>
        <mxCell id="SAaWtaPaoyS6eWU_aDOA-20" value="" style="html=1;jettySize=18;whiteSpace=wrap;fontSize=13;strokeColor=#708ca6;strokeOpacity=100;strokeWidth=3;rounded=0;startArrow=none;endArrow=none;exitX=0.626;exitY=-0.005;exitPerimeter=0;entryX=0.5;entryY=1.005;entryPerimeter=0;lucidId=xOcEDQ19wYAB;" parent="1" source="SAaWtaPaoyS6eWU_aDOA-6" target="SAaWtaPaoyS6eWU_aDOA-5" edge="1">
          <mxGeometry width="100" height="100" relative="1" as="geometry">
            <Array as="points" />
          </mxGeometry>
        </mxCell>
        <mxCell id="SAaWtaPaoyS6eWU_aDOA-21" value="eth3" style="text;html=1;resizable=0;labelBackgroundColor=default;align=center;verticalAlign=middle;fontStyle=0;fontColor=#333333;fontSize=12;" parent="SAaWtaPaoyS6eWU_aDOA-20" vertex="1">
          <mxGeometry x="-0.6412548775556319" relative="1" as="geometry" />
        </mxCell>
        <mxCell id="SAaWtaPaoyS6eWU_aDOA-22" value="" style="html=1;jettySize=18;whiteSpace=wrap;fontSize=13;strokeColor=#708ca6;strokeOpacity=100;strokeWidth=3;rounded=0;startArrow=none;endArrow=none;exitX=0.566;exitY=-0.005;exitPerimeter=0;entryX=0.5;entryY=1.005;entryPerimeter=0;lucidId=EOcEkz9Lft_9;" parent="1" source="SAaWtaPaoyS6eWU_aDOA-7" target="SAaWtaPaoyS6eWU_aDOA-5" edge="1">
          <mxGeometry width="100" height="100" relative="1" as="geometry">
            <Array as="points" />
          </mxGeometry>
        </mxCell>
        <mxCell id="SAaWtaPaoyS6eWU_aDOA-59" style="edgeStyle=orthogonalEdgeStyle;rounded=0;orthogonalLoop=1;jettySize=auto;html=1;exitX=0;exitY=0;exitDx=0;exitDy=0;fontStyle=0;fontSize=12;" parent="SAaWtaPaoyS6eWU_aDOA-22" edge="1">
          <mxGeometry relative="1" as="geometry">
            <mxPoint x="650.3106743950161" y="630.184462253872" as="sourcePoint" />
            <mxPoint x="650.3106743950161" y="630.184462253872" as="targetPoint" />
          </mxGeometry>
        </mxCell>
        <mxCell id="SAaWtaPaoyS6eWU_aDOA-24" value="" style="html=1;jettySize=18;whiteSpace=wrap;fontSize=13;strokeColor=#708ca6;strokeOpacity=100;strokeWidth=3;rounded=0;startArrow=none;endArrow=none;exitX=0.5;exitY=-0.005;exitPerimeter=0;entryX=0.5;entryY=1.005;entryPerimeter=0;lucidId=LOcErvmA6xg4;" parent="1" source="SAaWtaPaoyS6eWU_aDOA-72" target="SAaWtaPaoyS6eWU_aDOA-5" edge="1">
          <mxGeometry width="100" height="100" relative="1" as="geometry">
            <Array as="points" />
          </mxGeometry>
        </mxCell>
        <mxCell id="SAaWtaPaoyS6eWU_aDOA-25" value="" style="html=1;jettySize=18;whiteSpace=wrap;fontSize=13;strokeColor=#708ca6;strokeOpacity=100;strokeWidth=3;rounded=0;startArrow=none;endArrow=none;exitX=0.5;exitY=-0.005;exitPerimeter=0;entryX=0.5;entryY=1.005;entryPerimeter=0;lucidId=YOcEJ5Kzxu9V;" parent="1" source="SAaWtaPaoyS6eWU_aDOA-9" target="SAaWtaPaoyS6eWU_aDOA-5" edge="1">
          <mxGeometry width="100" height="100" relative="1" as="geometry">
            <Array as="points" />
          </mxGeometry>
        </mxCell>
        <mxCell id="SAaWtaPaoyS6eWU_aDOA-26" value="" style="html=1;jettySize=18;whiteSpace=wrap;fontSize=13;strokeColor=#708ca6;strokeOpacity=100;strokeWidth=3;rounded=0;startArrow=none;endArrow=none;exitX=1.002;exitY=0.167;exitPerimeter=0;entryX=-0.002;entryY=0.167;entryPerimeter=0;lucidId=-OcE0mhvDMb.;" parent="1" source="SAaWtaPaoyS6eWU_aDOA-6" target="SAaWtaPaoyS6eWU_aDOA-7" edge="1">
          <mxGeometry width="100" height="100" relative="1" as="geometry">
            <Array as="points" />
          </mxGeometry>
        </mxCell>
        <mxCell id="SAaWtaPaoyS6eWU_aDOA-27" value="eth1" style="text;html=1;resizable=0;labelBackgroundColor=default;align=center;verticalAlign=middle;fontStyle=1;fontColor=#333333;fontSize=13.3;" parent="SAaWtaPaoyS6eWU_aDOA-26" vertex="1">
          <mxGeometry relative="1" as="geometry" />
        </mxCell>
        <mxCell id="SAaWtaPaoyS6eWU_aDOA-28" value="" style="html=1;jettySize=18;whiteSpace=wrap;fontSize=13;strokeColor=#708ca6;strokeOpacity=100;strokeWidth=3;rounded=0;startArrow=none;endArrow=none;exitX=1.002;exitY=0.703;exitPerimeter=0;entryX=-0.002;entryY=0.703;entryPerimeter=0;lucidId=hPcEpW5z6_Q4;" parent="1" source="SAaWtaPaoyS6eWU_aDOA-6" target="SAaWtaPaoyS6eWU_aDOA-7" edge="1">
          <mxGeometry width="100" height="100" relative="1" as="geometry">
            <Array as="points" />
          </mxGeometry>
        </mxCell>
        <mxCell id="SAaWtaPaoyS6eWU_aDOA-29" value="eth6" style="text;html=1;resizable=0;labelBackgroundColor=default;align=center;verticalAlign=middle;fontStyle=1;fontColor=#333333;fontSize=13.3;" parent="SAaWtaPaoyS6eWU_aDOA-28" vertex="1">
          <mxGeometry relative="1" as="geometry" />
        </mxCell>
        <mxCell id="SAaWtaPaoyS6eWU_aDOA-30" value="" style="html=1;jettySize=18;whiteSpace=wrap;fontSize=13;strokeColor=#708ca6;strokeOpacity=100;strokeWidth=3;rounded=0;startArrow=none;endArrow=none;exitX=-0.002;exitY=0.283;exitPerimeter=0;entryX=1.002;entryY=0.283;entryPerimeter=0;lucidId=nPcEOFS4PgKr;" parent="1" source="SAaWtaPaoyS6eWU_aDOA-9" target="SAaWtaPaoyS6eWU_aDOA-8" edge="1">
          <mxGeometry width="100" height="100" relative="1" as="geometry">
            <Array as="points" />
          </mxGeometry>
        </mxCell>
        <mxCell id="SAaWtaPaoyS6eWU_aDOA-31" value="" style="html=1;jettySize=18;whiteSpace=wrap;fontSize=13;strokeColor=#708ca6;strokeOpacity=100;strokeWidth=3;rounded=0;startArrow=none;endArrow=none;exitX=1.002;exitY=0.746;exitPerimeter=0;entryX=-0.002;entryY=0.746;entryPerimeter=0;lucidId=tPcENzWbp4Fn;" parent="1" source="SAaWtaPaoyS6eWU_aDOA-8" target="SAaWtaPaoyS6eWU_aDOA-9" edge="1">
          <mxGeometry width="100" height="100" relative="1" as="geometry">
            <Array as="points" />
          </mxGeometry>
        </mxCell>
        <mxCell id="SAaWtaPaoyS6eWU_aDOA-32" value="Host 1" style="html=1;overflow=block;blockSpacing=1;whiteSpace=wrap;fontSize=16.7;fontColor=#ffffff;fontStyle=1;spacing=9;strokeColor=#708ca6;strokeOpacity=100;fillOpacity=100;rounded=1;absoluteArcSize=1;arcSize=9;fillColor=#708ca6;strokeWidth=NaN;lucidId=.PcEmaHjDP97;" parent="1" vertex="1">
          <mxGeometry x="175" y="888" width="198" height="69" as="geometry" />
        </mxCell>
        <mxCell id="SAaWtaPaoyS6eWU_aDOA-33" value="Host 3" style="html=1;overflow=block;blockSpacing=1;whiteSpace=wrap;fontSize=16.7;fontColor=#ffffff;fontStyle=1;spacing=9;strokeColor=#708ca6;strokeOpacity=100;fillOpacity=100;rounded=1;absoluteArcSize=1;arcSize=9;fillColor=#708ca6;strokeWidth=NaN;lucidId=OQcEZR3xVDkz;" parent="1" vertex="1">
          <mxGeometry x="471" y="888" width="198" height="69" as="geometry" />
        </mxCell>
        <mxCell id="SAaWtaPaoyS6eWU_aDOA-34" value="Host 2" style="html=1;overflow=block;blockSpacing=1;whiteSpace=wrap;fontSize=16.7;fontColor=#ffffff;fontStyle=1;spacing=9;strokeColor=#708ca6;strokeOpacity=100;fillOpacity=100;rounded=1;absoluteArcSize=1;arcSize=9;fillColor=#708ca6;strokeWidth=NaN;lucidId=VQcE5UCoswMj;" parent="1" vertex="1">
          <mxGeometry x="837" y="888" width="198" height="69" as="geometry" />
        </mxCell>
        <mxCell id="SAaWtaPaoyS6eWU_aDOA-35" value="Host 4" style="html=1;overflow=block;blockSpacing=1;whiteSpace=wrap;fontSize=16.7;fontColor=#ffffff;fontStyle=1;spacing=9;strokeColor=#708ca6;strokeOpacity=100;fillOpacity=100;rounded=1;absoluteArcSize=1;arcSize=9;fillColor=#708ca6;strokeWidth=NaN;lucidId=5QcEkpzEviA6;" parent="1" vertex="1">
          <mxGeometry x="1133" y="888" width="198" height="69" as="geometry" />
        </mxCell>
        <mxCell id="SAaWtaPaoyS6eWU_aDOA-36" value="" style="html=1;jettySize=18;whiteSpace=wrap;fontSize=13;strokeColor=#708ca6;strokeOpacity=100;strokeWidth=3;rounded=0;startArrow=none;endArrow=none;exitX=0.5;exitY=-0.005;exitPerimeter=0;entryX=0.5;entryY=1.005;entryPerimeter=0;lucidId=lRcEb4w7YVGW;" parent="1" source="SAaWtaPaoyS6eWU_aDOA-32" target="SAaWtaPaoyS6eWU_aDOA-6" edge="1">
          <mxGeometry width="100" height="100" relative="1" as="geometry">
            <Array as="points" />
          </mxGeometry>
        </mxCell>
        <mxCell id="SAaWtaPaoyS6eWU_aDOA-37" value="eth1" style="text;html=1;resizable=0;labelBackgroundColor=default;align=center;verticalAlign=middle;fontStyle=0;fontColor=#333333;fontSize=12;" parent="SAaWtaPaoyS6eWU_aDOA-36" vertex="1">
          <mxGeometry x="-0.6881825202396565" relative="1" as="geometry" />
        </mxCell>
        <mxCell id="SAaWtaPaoyS6eWU_aDOA-38" value="eth4" style="text;html=1;resizable=0;labelBackgroundColor=default;align=center;verticalAlign=middle;fontStyle=0;fontColor=#333333;fontSize=12;" parent="SAaWtaPaoyS6eWU_aDOA-36" vertex="1">
          <mxGeometry x="0.405902152413834" relative="1" as="geometry" />
        </mxCell>
        <mxCell id="SAaWtaPaoyS6eWU_aDOA-39" value="" style="html=1;jettySize=18;whiteSpace=wrap;fontSize=13;strokeColor=#708ca6;strokeOpacity=100;strokeWidth=3;rounded=0;startArrow=none;endArrow=none;exitX=0.746;exitY=-0.005;exitPerimeter=0;entryX=0.254;entryY=1.005;entryPerimeter=0;lucidId=rRcE1lINlCYa;" parent="1" source="SAaWtaPaoyS6eWU_aDOA-32" target="SAaWtaPaoyS6eWU_aDOA-7" edge="1">
          <mxGeometry width="100" height="100" relative="1" as="geometry">
            <Array as="points" />
          </mxGeometry>
        </mxCell>
        <mxCell id="SAaWtaPaoyS6eWU_aDOA-40" value="eth2" style="text;html=1;resizable=0;labelBackgroundColor=default;align=center;verticalAlign=middle;fontStyle=0;fontColor=#333333;fontSize=12;" parent="SAaWtaPaoyS6eWU_aDOA-39" vertex="1">
          <mxGeometry x="-0.7190869527467675" relative="1" as="geometry" />
        </mxCell>
        <mxCell id="SAaWtaPaoyS6eWU_aDOA-41" value="eth4" style="text;html=1;resizable=0;labelBackgroundColor=default;align=center;verticalAlign=middle;fontStyle=0;fontColor=#333333;fontSize=12;" parent="SAaWtaPaoyS6eWU_aDOA-39" vertex="1">
          <mxGeometry x="0.4156332941268661" relative="1" as="geometry" />
        </mxCell>
        <mxCell id="SAaWtaPaoyS6eWU_aDOA-42" value="" style="html=1;jettySize=18;whiteSpace=wrap;fontSize=13;strokeColor=#708ca6;strokeOpacity=100;strokeWidth=3;rounded=0;startArrow=none;endArrow=none;exitX=0.746;exitY=1.005;exitPerimeter=0;entryX=0.254;entryY=-0.005;entryPerimeter=0;lucidId=ARcEyBS12Bb-;" parent="1" source="SAaWtaPaoyS6eWU_aDOA-6" target="SAaWtaPaoyS6eWU_aDOA-33" edge="1">
          <mxGeometry width="100" height="100" relative="1" as="geometry">
            <Array as="points" />
          </mxGeometry>
        </mxCell>
        <mxCell id="SAaWtaPaoyS6eWU_aDOA-43" value="eth5" style="text;html=1;resizable=0;labelBackgroundColor=default;align=center;verticalAlign=middle;fontStyle=0;fontColor=#333333;fontSize=12;" parent="SAaWtaPaoyS6eWU_aDOA-42" vertex="1">
          <mxGeometry x="-0.4971120752166128" relative="1" as="geometry" />
        </mxCell>
        <mxCell id="SAaWtaPaoyS6eWU_aDOA-44" value="eth1" style="text;html=1;resizable=0;labelBackgroundColor=default;align=center;verticalAlign=middle;fontStyle=0;fontColor=#333333;fontSize=12;" parent="SAaWtaPaoyS6eWU_aDOA-42" vertex="1">
          <mxGeometry x="0.7752969184064238" relative="1" as="geometry" />
        </mxCell>
        <mxCell id="SAaWtaPaoyS6eWU_aDOA-45" value="" style="html=1;jettySize=18;whiteSpace=wrap;fontSize=13;strokeColor=#708ca6;strokeOpacity=100;strokeWidth=3;rounded=0;startArrow=none;endArrow=none;exitX=0.5;exitY=-0.005;exitPerimeter=0;entryX=0.5;entryY=1.005;entryPerimeter=0;lucidId=KRcEQ~QB-6__;" parent="1" source="SAaWtaPaoyS6eWU_aDOA-33" target="SAaWtaPaoyS6eWU_aDOA-7" edge="1">
          <mxGeometry width="100" height="100" relative="1" as="geometry">
            <Array as="points" />
          </mxGeometry>
        </mxCell>
        <mxCell id="SAaWtaPaoyS6eWU_aDOA-46" value="eth5" style="text;html=1;resizable=0;labelBackgroundColor=default;align=center;verticalAlign=middle;fontStyle=0;fontColor=#333333;fontSize=12;" parent="SAaWtaPaoyS6eWU_aDOA-45" vertex="1">
          <mxGeometry x="0.405902152413834" relative="1" as="geometry" />
        </mxCell>
        <mxCell id="SAaWtaPaoyS6eWU_aDOA-47" value="eth2" style="text;html=1;resizable=0;labelBackgroundColor=default;align=center;verticalAlign=middle;fontStyle=0;fontColor=#333333;fontSize=12;" parent="SAaWtaPaoyS6eWU_aDOA-45" vertex="1">
          <mxGeometry x="-0.7498210933468961" relative="1" as="geometry" />
        </mxCell>
        <mxCell id="SAaWtaPaoyS6eWU_aDOA-48" value="" style="html=1;jettySize=18;whiteSpace=wrap;fontSize=13;strokeColor=#708ca6;strokeOpacity=100;strokeWidth=3;rounded=0;startArrow=none;endArrow=none;exitX=0.5;exitY=-0.005;exitPerimeter=0;entryX=0.5;entryY=1.005;entryPerimeter=0;lucidId=OTcEsHePGc0N;" parent="1" source="SAaWtaPaoyS6eWU_aDOA-34" target="SAaWtaPaoyS6eWU_aDOA-8" edge="1">
          <mxGeometry width="100" height="100" relative="1" as="geometry">
            <Array as="points" />
          </mxGeometry>
        </mxCell>
        <mxCell id="SAaWtaPaoyS6eWU_aDOA-49" value="" style="html=1;jettySize=18;whiteSpace=wrap;fontSize=13;strokeColor=#708ca6;strokeOpacity=100;strokeWidth=3;rounded=0;startArrow=none;endArrow=none;exitX=0.746;exitY=-0.005;exitPerimeter=0;entryX=0.254;entryY=1.005;entryPerimeter=0;lucidId=TTcEFWJj1Vsw;" parent="1" source="SAaWtaPaoyS6eWU_aDOA-34" target="SAaWtaPaoyS6eWU_aDOA-9" edge="1">
          <mxGeometry width="100" height="100" relative="1" as="geometry">
            <Array as="points" />
          </mxGeometry>
        </mxCell>
        <mxCell id="SAaWtaPaoyS6eWU_aDOA-50" value="" style="html=1;jettySize=18;whiteSpace=wrap;fontSize=13;strokeColor=#708ca6;strokeOpacity=100;strokeWidth=3;rounded=0;startArrow=none;endArrow=none;exitX=0.5;exitY=-0.005;exitPerimeter=0;entryX=0.5;entryY=1.005;entryPerimeter=0;lucidId=YTcE.-pwdI_a;" parent="1" source="SAaWtaPaoyS6eWU_aDOA-35" target="SAaWtaPaoyS6eWU_aDOA-9" edge="1">
          <mxGeometry width="100" height="100" relative="1" as="geometry">
            <Array as="points" />
          </mxGeometry>
        </mxCell>
        <mxCell id="SAaWtaPaoyS6eWU_aDOA-51" value="" style="html=1;jettySize=18;whiteSpace=wrap;fontSize=13;strokeColor=#708ca6;strokeOpacity=100;strokeWidth=3;rounded=0;startArrow=none;endArrow=none;exitX=0.254;exitY=-0.005;exitPerimeter=0;entryX=0.746;entryY=1.005;entryPerimeter=0;lucidId=3TcEC1QP7bp_;" parent="1" source="SAaWtaPaoyS6eWU_aDOA-35" target="SAaWtaPaoyS6eWU_aDOA-8" edge="1">
          <mxGeometry width="100" height="100" relative="1" as="geometry">
            <Array as="points" />
          </mxGeometry>
        </mxCell>
        <mxCell id="SAaWtaPaoyS6eWU_aDOA-52" value="MLAG domain" style="html=1;overflow=block;blockSpacing=1;whiteSpace=wrap;fontSize=13.3;fontColor=#3a414a;spacing=0;strokeColor=none;strokeOpacity=100;rounded=1;absoluteArcSize=1;arcSize=9;strokeWidth=0.8;fillColor=none;lucidId=iUcEw5~cu.Jm;" parent="1" vertex="1">
          <mxGeometry x="1224" y="621" width="180" height="45" as="geometry" />
        </mxCell>
        <mxCell id="SAaWtaPaoyS6eWU_aDOA-53" value="MLAG domain" style="html=1;overflow=block;blockSpacing=1;whiteSpace=wrap;fontSize=13.3;fontColor=#3a414a;spacing=0;strokeColor=none;strokeOpacity=100;rounded=1;absoluteArcSize=1;arcSize=9;strokeWidth=0.8;fillColor=none;lucidId=wUcEOmzLTjcV;" parent="1" vertex="1">
          <mxGeometry x="82" y="621" width="180" height="45" as="geometry" />
        </mxCell>
        <mxCell id="SAaWtaPaoyS6eWU_aDOA-54" value="" style="html=1;jettySize=18;whiteSpace=wrap;fontSize=13;strokeColor=#708ca6;strokeOpacity=100;strokeWidth=3;rounded=0;startArrow=none;endArrow=none;exitX=1.002;exitY=0.382;exitPerimeter=0;entryX=-0.002;entryY=0.382;entryPerimeter=0;lucidId=FUcEs8fpjwEw;" parent="1" source="SAaWtaPaoyS6eWU_aDOA-4" target="SAaWtaPaoyS6eWU_aDOA-5" edge="1">
          <mxGeometry width="100" height="100" relative="1" as="geometry">
            <Array as="points" />
          </mxGeometry>
        </mxCell>
        <mxCell id="SAaWtaPaoyS6eWU_aDOA-55" value="eth1" style="text;html=1;resizable=0;labelBackgroundColor=default;align=center;verticalAlign=middle;fontStyle=1;fontColor=#333333;fontSize=13.3;fillColor=none;" parent="SAaWtaPaoyS6eWU_aDOA-54" vertex="1">
          <mxGeometry relative="1" as="geometry" />
        </mxCell>
        <mxCell id="SAaWtaPaoyS6eWU_aDOA-56" value="" style="html=1;jettySize=18;whiteSpace=wrap;fontSize=13;strokeColor=#708ca6;strokeOpacity=100;strokeWidth=3;rounded=0;startArrow=none;endArrow=none;exitX=1.002;exitY=0.799;exitPerimeter=0;entryX=-0.002;entryY=0.799;entryPerimeter=0;lucidId=FUcEB2XFTIno;" parent="1" source="SAaWtaPaoyS6eWU_aDOA-4" target="SAaWtaPaoyS6eWU_aDOA-5" edge="1">
          <mxGeometry width="100" height="100" relative="1" as="geometry">
            <Array as="points" />
          </mxGeometry>
        </mxCell>
        <mxCell id="SAaWtaPaoyS6eWU_aDOA-57" value="eth6" style="text;html=1;resizable=0;labelBackgroundColor=default;align=center;verticalAlign=middle;fontStyle=1;fontColor=#333333;fontSize=13.3;fillColor=none;" parent="SAaWtaPaoyS6eWU_aDOA-56" vertex="1">
          <mxGeometry relative="1" as="geometry" />
        </mxCell>
        <mxCell id="SAaWtaPaoyS6eWU_aDOA-64" value="eth2" style="text;html=1;resizable=0;labelBackgroundColor=default;align=center;verticalAlign=middle;fontStyle=0;fontColor=#333333;fontSize=12;" parent="1" vertex="1">
          <mxGeometry x="836.9961277718278" y="459.99924647781694" as="geometry" />
        </mxCell>
        <mxCell id="SAaWtaPaoyS6eWU_aDOA-65" value="eth3" style="text;html=1;resizable=0;labelBackgroundColor=default;align=center;verticalAlign=middle;fontStyle=0;fontColor=#333333;fontSize=12;" parent="1" vertex="1">
          <mxGeometry x="885" y="461.005" as="geometry" />
        </mxCell>
        <mxCell id="SAaWtaPaoyS6eWU_aDOA-66" value="eth4" style="text;html=1;resizable=0;labelBackgroundColor=default;align=center;verticalAlign=middle;fontStyle=0;fontColor=#333333;fontSize=12;" parent="1" vertex="1">
          <mxGeometry x="935.9993255638437" y="459.99859302305833" as="geometry" />
        </mxCell>
        <mxCell id="SAaWtaPaoyS6eWU_aDOA-67" value="eth5" style="text;html=1;resizable=0;labelBackgroundColor=default;align=center;verticalAlign=middle;fontStyle=0;fontColor=#333333;fontSize=12;" parent="1" vertex="1">
          <mxGeometry x="980.0011906204167" y="460.0018269275947" as="geometry" />
        </mxCell>
        <mxCell id="SAaWtaPaoyS6eWU_aDOA-74" value="" style="html=1;jettySize=18;whiteSpace=wrap;fontSize=13;strokeColor=#708ca6;strokeOpacity=100;strokeWidth=3;rounded=0;startArrow=none;endArrow=none;exitX=0.5;exitY=-0.005;exitPerimeter=0;entryX=0.5;entryY=1.005;entryPerimeter=0;lucidId=LOcErvmA6xg4;" parent="1" source="SAaWtaPaoyS6eWU_aDOA-8" target="SAaWtaPaoyS6eWU_aDOA-72" edge="1">
          <mxGeometry width="100" height="100" relative="1" as="geometry">
            <Array as="points" />
            <mxPoint x="936" y="676" as="sourcePoint" />
            <mxPoint x="936" y="425" as="targetPoint" />
          </mxGeometry>
        </mxCell>
        <mxCell id="SAaWtaPaoyS6eWU_aDOA-72" value="eth3" style="text;html=1;resizable=0;labelBackgroundColor=default;align=center;verticalAlign=middle;fontStyle=0;fontColor=#333333;fontSize=12;" parent="1" vertex="1">
          <mxGeometry x="936.0006743950162" y="630.184462253872" as="geometry" />
        </mxCell>
        <mxCell id="SAaWtaPaoyS6eWU_aDOA-75" value="eth2" style="edgeLabel;html=1;align=center;verticalAlign=middle;resizable=0;points=[];fontStyle=0;fontSize=12;" parent="1" vertex="1" connectable="0">
          <mxGeometry x="1086.4981316863032" y="630.1840783070916" as="geometry" />
        </mxCell>
        <mxCell id="SAaWtaPaoyS6eWU_aDOA-76" value="eth3" style="text;html=1;resizable=0;labelBackgroundColor=default;align=center;verticalAlign=middle;fontStyle=0;fontColor=#333333;fontSize=12;" parent="1" vertex="1">
          <mxGeometry x="1180.0006743950162" y="630.184462253872" as="geometry" />
        </mxCell>
      </root>
    </mxGraphModel>
  </diagram>
</mxfile>
